# xmcd CD database file
#
# Track frame offsets:
#	150
#	33305
#	90059
#	161176
#	207846
#	242928
#	260187
#
# Disc length: 3946 seconds
#
# Revision: 0
# Processed by: cddbd v1.5.2PL0 Copyright (c) Steve Scherf et al.
# Submitted via: CDex 1.70beta2
#
DISCID=590f6807
DTITLE=StGermain - Boulevard
DYEAR=1900
DGENRE=Jazz
TTITLE0=Deep in it
TTITLE1=Thank u mum (4 everything you did)
TTITLE2=Street Scene (4Shazz)
TTITLE3=Easy to remember
TTITLE4=Sentimental
TTITLE5=Whats new
TTITLE6=Dub experience ||
EXTD=
EXTT0=
EXTT1=
EXTT2=
EXTT3=
EXTT4=
EXTT5=
EXTT6=
PLAYORDER=
